HIERARCHY
ROOT Root
{
  OFFSET 0.0 0.0 0.0
  CHANNELS 6 Xposition Yposition Zposition Zrotation Yrotation Xrotation
  JOINT Hips
  {
    OFFSET 0.0 100.0 0.0
    CHANNELS 6 Xposition Yposition Zposition Zrotation Yrotation Xrotation
    JOINT Spine1
    {
      OFFSET 5.003913 -0.037094 -0.013727
      CHANNELS 3 Zrotation Yrotation Xrotation
      JOINT Spine2
      {
        OFFSET 7.125363 -1e-06 0.0
        CHANNELS 3 Zrotation Yrotation Xrotation
        JOINT Chest
        {
          OFFSET 7.594027 1e-06 0.0
          CHANNELS 3 Zrotation Yrotation Xrotation
          JOINT Neck1
          {
            OFFSET 26.313086 -0.460272 -0.181672
            CHANNELS 3 Zrotation Yrotation Xrotation
            JOINT Neck2
            {
              OFFSET 8.045911 0.0 0.0
              CHANNELS 3 Zrotation Yrotation Xrotation
              JOINT Head
              {
                OFFSET 6.432774 0.0 0.0
                CHANNELS 3 Zrotation Yrotation Xrotation
                JOINT HeadEnd
                {
                  OFFSET 16.169773 0.06451 0.00362
                  CHANNELS 3 Zrotation Yrotation Xrotation
                }
                JOINT Jaw
                {
                  OFFSET 0.108741 3.12938 0.002639
                  CHANNELS 3 Zrotation Yrotation Xrotation
                }
                JOINT LeftEye
                {
                  OFFSET 4.45173 8.166359 3.206392
                  CHANNELS 3 Zrotation Yrotation Xrotation
                }
                JOINT RightEye
                {
                  OFFSET 4.436895 8.135758 -3.222429
                  CHANNELS 3 Zrotation Yrotation Xrotation
                }
              }
            }
          }
          JOINT LeftShoulder
          {
            OFFSET 23.218927 5.195579 1.621656
            CHANNELS 3 Zrotation Yrotation Xrotation
            JOINT LeftArm
            {
              OFFSET 15.902118 2e-06 -2e-06
              CHANNELS 3 Zrotation Yrotation Xrotation
              JOINT LeftForeArm
              {
                OFFSET 28.739307 0.0 -1e-06
                CHANNELS 3 Zrotation Yrotation Xrotation
                JOINT LeftHand
                {
                  OFFSET 27.093981 -4e-06 0.0
                  CHANNELS 3 Zrotation Yrotation Xrotation
                  JOINT LeftHandThumb1
                  {
                    OFFSET 2.276781 3.380274 0.83384
                    CHANNELS 3 Zrotation Yrotation Xrotation
                    JOINT LeftHandThumb2
                    {
                      OFFSET 4.705309 -1e-06 -1e-06
                      CHANNELS 3 Zrotation Yrotation Xrotation
                      JOINT LeftHandThumb3
                      {
                        OFFSET 2.798515 0.0 3e-06
                        CHANNELS 3 Zrotation Yrotation Xrotation
                        JOINT LeftHandThumbEnd
                        {
                          OFFSET 3.180793 4e-06 -4e-06
                          CHANNELS 3 Zrotation Yrotation Xrotation
                        }
                      }
                    }
                  }
                  JOINT LeftHandIndex1
                  {
                    OFFSET 3.247786 2.352677 0.137192
                    CHANNELS 3 Zrotation Yrotation Xrotation
                    JOINT LeftHandIndex2
                    {
                      OFFSET 6.367095 1e-06 0.0
                      CHANNELS 3 Zrotation Yrotation Xrotation
                      JOINT LeftHandIndex3
                      {
                        OFFSET 3.662364 0.0 0.0
                        CHANNELS 3 Zrotation Yrotation Xrotation
                        JOINT LeftHandIndex4
                        {
                          OFFSET 2.329242 4e-06 -4e-06
                          CHANNELS 3 Zrotation Yrotation Xrotation
                          JOINT LeftHandIndexEnd
                          {
                            OFFSET 2.767823 1e-06 0.0
                            CHANNELS 3 Zrotation Yrotation Xrotation
                          }
                        }
                      }
                    }
                  }
                  JOINT LeftHandMiddle1
                  {
                    OFFSET 3.163612 0.945023 -0.406112
                    CHANNELS 3 Zrotation Yrotation Xrotation
                    JOINT LeftHandMiddle2
                    {
                      OFFSET 6.276789 3e-06 0.0
                      CHANNELS 3 Zrotation Yrotation Xrotation
                      JOINT LeftHandMiddle3
                      {
                        OFFSET 4.35652 -1e-06 4e-06
                        CHANNELS 3 Zrotation Yrotation Xrotation
                        JOINT LeftHandMiddle4
                        {
                          OFFSET 2.996877 0.0 8e-06
                          CHANNELS 3 Zrotation Yrotation Xrotation
                          JOINT LeftHandMiddleEnd
                          {
                            OFFSET 2.323256 3e-06 -4e-06
                            CHANNELS 3 Zrotation Yrotation Xrotation
                          }
                        }
                      }
                    }
                  }
                  JOINT LeftHandRing1
                  {
                    OFFSET 2.882606 -0.309162 0.107445
                    CHANNELS 3 Zrotation Yrotation Xrotation
                    JOINT LeftHandRing2
                    {
                      OFFSET 6.033198 0.0 4e-06
                      CHANNELS 3 Zrotation Yrotation Xrotation
                      JOINT LeftHandRing3
                      {
                        OFFSET 4.350578 3e-06 0.0
                        CHANNELS 3 Zrotation Yrotation Xrotation
                        JOINT LeftHandRing4
                        {
                          OFFSET 2.651321 2e-06 -7e-06
                          CHANNELS 3 Zrotation Yrotation Xrotation
                          JOINT LeftHandRingEnd
                          {
                            OFFSET 1.937663 1e-06 -4e-06
                            CHANNELS 3 Zrotation Yrotation Xrotation
                          }
                        }
                      }
                    }
                  }
                  JOINT LeftHandPinky1
                  {
                    OFFSET 2.865315 -1.525436 0.575687
                    CHANNELS 3 Zrotation Yrotation Xrotation
                    JOINT LeftHandPinky2
                    {
                      OFFSET 5.54936 1e-06 -8e-06
                      CHANNELS 3 Zrotation Yrotation Xrotation
                      JOINT LeftHandPinky3
                      {
                        OFFSET 3.070974 0.0 -4e-06
                        CHANNELS 3 Zrotation Yrotation Xrotation
                        JOINT LeftHandPinky4
                        {
                          OFFSET 1.549672 1e-06 0.0
                          CHANNELS 3 Zrotation Yrotation Xrotation
                          JOINT LeftHandPinkyEnd
                          {
                            OFFSET 1.952123 0.0 0.0
                            CHANNELS 3 Zrotation Yrotation Xrotation
                          }
                        }
                      }
                    }
                  }
                }
              }
            }
          }
          JOINT RightShoulder
          {
            OFFSET 23.161716 5.296122 -1.380114
            CHANNELS 3 Zrotation Yrotation Xrotation
            JOINT RightArm
            {
              OFFSET -16.027195 -2e-06 1.1e-05
              CHANNELS 3 Zrotation Yrotation Xrotation
              JOINT RightForeArm
              {
                OFFSET -28.736639 4e-06 2e-06
                CHANNELS 3 Zrotation Yrotation Xrotation
                JOINT RightHand
                {
                  OFFSET -27.133619 6e-06 0.0
                  CHANNELS 3 Zrotation Yrotation Xrotation
                  JOINT RightHandThumb1
                  {
                    OFFSET -2.274328 -3.351035 -0.83067
                    CHANNELS 3 Zrotation Yrotation Xrotation
                    JOINT RightHandThumb2
                    {
                      OFFSET -4.703594 -3e-06 2e-06
                      CHANNELS 3 Zrotation Yrotation Xrotation
                      JOINT RightHandThumb3
                      {
                        OFFSET -2.794935 -4e-06 -3e-06
                        CHANNELS 3 Zrotation Yrotation Xrotation
                        JOINT RightHandThumbEnd
                        {
                          OFFSET -3.183852 4e-06 1e-06
                          CHANNELS 3 Zrotation Yrotation Xrotation
                        }
                      }
                    }
                  }
                  JOINT RightHandIndex1
                  {
                    OFFSET -3.253496 -2.33755 -0.127667
                    CHANNELS 3 Zrotation Yrotation Xrotation
                    JOINT RightHandIndex2
                    {
                      OFFSET -6.344434 0.0 0.0
                      CHANNELS 3 Zrotation Yrotation Xrotation
                      JOINT RightHandIndex3
                      {
                        OFFSET -3.654871 0.0 -8e-06
                        CHANNELS 3 Zrotation Yrotation Xrotation
                        JOINT RightHandIndex4
                        {
                          OFFSET -2.327586 -1e-06 0.0
                          CHANNELS 3 Zrotation Yrotation Xrotation
                          JOINT RightHandIndexEnd
                          {
                            OFFSET -2.770001 3e-06 8e-06
                            CHANNELS 3 Zrotation Yrotation Xrotation
                          }
                        }
                      }
                    }
                  }
                  JOINT RightHandMiddle1
                  {
                    OFFSET -3.168223 -0.944764 0.411762
                    CHANNELS 3 Zrotation Yrotation Xrotation
                    JOINT RightHandMiddle2
                    {
                      OFFSET -6.266691 -1e-06 -4e-06
                      CHANNELS 3 Zrotation Yrotation Xrotation
                      JOINT RightHandMiddle3
                      {
                        OFFSET -4.348901 0.0 0.0
                        CHANNELS 3 Zrotation Yrotation Xrotation
                        JOINT RightHandMiddle4
                        {
                          OFFSET -3.00024 2e-06 -4e-06
                          CHANNELS 3 Zrotation Yrotation Xrotation
                          JOINT RightHandMiddleEnd
                          {
                            OFFSET -2.321477 -4e-06 -4e-06
                            CHANNELS 3 Zrotation Yrotation Xrotation
                          }
                        }
                      }
                    }
                  }
                  JOINT RightHandRing1
                  {
                    OFFSET -2.885654 0.293261 -0.119232
                    CHANNELS 3 Zrotation Yrotation Xrotation
                    JOINT RightHandRing2
                    {
                      OFFSET -6.032835 -1e-06 -4e-06
                      CHANNELS 3 Zrotation Yrotation Xrotation
                      JOINT RightHandRing3
                      {
                        OFFSET -4.33881 0.0 -4e-06
                        CHANNELS 3 Zrotation Yrotation Xrotation
                        JOINT RightHandRing4
                        {
                          OFFSET -2.654903 -4e-06 -4e-06
                          CHANNELS 3 Zrotation Yrotation Xrotation
                          JOINT RightHandRingEnd
                          {
                            OFFSET -1.935122 0.0 4e-06
                            CHANNELS 3 Zrotation Yrotation Xrotation
                          }
                        }
                      }
                    }
                  }
                  JOINT RightHandPinky1
                  {
                    OFFSET -2.866241 1.503904 -0.60527
                    CHANNELS 3 Zrotation Yrotation Xrotation
                    JOINT RightHandPinky2
                    {
                      OFFSET -5.553177 -2e-06 0.0
                      CHANNELS 3 Zrotation Yrotation Xrotation
                      JOINT RightHandPinky3
                      {
                        OFFSET -3.062664 -1e-06 -4e-06
                        CHANNELS 3 Zrotation Yrotation Xrotation
                        JOINT RightHandPinky4
                        {
                          OFFSET -1.546529 2e-06 4e-06
                          CHANNELS 3 Zrotation Yrotation Xrotation
                          JOINT RightHandPinkyEnd
                          {
                            OFFSET -1.952341 0.0 -4e-06
                            CHANNELS 3 Zrotation Yrotation Xrotation
                          }
                        }
                      }
                    }
                  }
                }
              }
            }
          }
        }
      }
    }
    JOINT LeftLeg
    {
      OFFSET -8.443107 2.567604 10.043214
      CHANNELS 3 Zrotation Yrotation Xrotation
      JOINT LeftShin
      {
        OFFSET 43.229198 1e-06 -1e-06
        CHANNELS 3 Zrotation Yrotation Xrotation
        JOINT LeftFoot
        {
          OFFSET 42.298611 1e-06 1e-06
          CHANNELS 3 Zrotation Yrotation Xrotation
          JOINT LeftToeBase
          {
            OFFSET 14.165858 1e-06 0.0
            CHANNELS 3 Zrotation Yrotation Xrotation
            JOINT LeftToeEnd
            {
              OFFSET 6.7141 -0.234461 0.0
              CHANNELS 3 Zrotation Yrotation Xrotation
            }
          }
        }
      }
    }
    JOINT RightLeg
    {
      OFFSET -8.303923 2.592729 -10.047278
      CHANNELS 3 Zrotation Yrotation Xrotation
      JOINT RightShin
      {
        OFFSET -43.369682 0.0 1e-06
        CHANNELS 3 Zrotation Yrotation Xrotation
        JOINT RightFoot
        {
          OFFSET -42.260784 4e-06 2e-06
          CHANNELS 3 Zrotation Yrotation Xrotation
          JOINT RightToeBase
          {
            OFFSET -14.222245 -2e-06 -1e-06
            CHANNELS 3 Zrotation Yrotation Xrotation
            JOINT RightToeEnd
            {
              OFFSET -6.660062 0.232574 -2e-06
              CHANNELS 3 Zrotation Yrotation Xrotation
            }
          }
        }
      }
    }
  }
}
MOTION
Frames: 4
Frame Time: 0.03333333333333333
0.0 0.0 0.0 0.0 -0.0 0.0 -0.558658 100.044571 5.951272 90.272675 -0.983254 90.162804 -3.78867 -0.23064 0.013201 -12.52114 -0.726431 0.198346 23.71788 -0.953427 -1.700723 19.71862 4.223705 2.238028 -2.513164 -0.78938 -0.970237 -33.419418 -1.722687 -0.978383 6e-06 -0.0 -0.0 -0.006952 0.018847 -0.011128 0.054515 0.115295 0.000281 0.058024 -0.079589 -0.02278 -102.228737 -77.016983 121.532928 55.554142 -54.256844 -1.659393 24.656322 -0.140841 0.14395 -0.432832 2.665868 3.104855 17.636627 -26.322725 52.411186 -19.466663 -14.395598 29.410389 0.0 -8.774822 -1e-06 16.214615 -18.326324 6.074308 -0.609776 -1.795653 -3.889329 -4.80709 -11.046813 -2.93785 4e-06 -20.976021 -4e-06 -5.019973 -25.033562 -4.031882 4e-06 -1e-06 2e-06 -10.634535 -5.686972 -3.565585 10.573275 -17.922951 -3.113899 2e-06 -13.821209 -0.0 -0.501779 -31.181505 -4.027017 -11.213342 -59.925327 7.057992 -13.982714 -7.150198 -2.875042 13.772729 -8.401492 -3.218242 0.347735 -34.211555 0.771651 -0.963027 -17.73337 2.621018 -0.0 1e-06 -0.0 -17.346418 -20.095221 -4.201782 21.757557 -1.638373 3.866425 1e-06 -6.338824 -1e-06 -1.69759 -22.591747 -6.194008 1e-06 -4e-06 -1e-06 45.324093 -75.053612 156.633926 55.392467 -49.378433 1.666434 28.458485 0.224259 -0.003332 -2.884598 3.088055 6.364493 22.182116 -20.375887 49.933315 -16.701815 -16.743528 28.47653 -3e-06 -12.690601 -1e-06 16.292086 -17.807878 2.559848 -0.105921 -1.513857 -4.275882 -5.039041 -5.612872 -2.953557 3e-06 -11.020525 -3e-06 -6.111299 -15.895334 -3.840472 -1e-06 1e-06 2e-06 -10.283371 -5.680289 -4.341838 11.028296 -11.302406 -2.372636 -1.384271 -14.238582 -6.320118 -0.625436 -26.924194 -3.827603 -4.478067 -50.002632 -3.682481 -13.708526 -7.363477 -3.720939 18.141151 -14.052739 -3.242676 7e-06 -18.787271 0.0 -0.429712 -8.456042 2.555501 -1e-06 -1e-06 2e-06 -15.923534 -20.094484 -5.473583 30.41921 -7.190827 1.735925 3e-06 -8.162922 -3e-06 -1.861902 -22.861469 -6.167947 1e-06 -5e-06 -2e-06 176.424469 -6.472758 -16.912094 15.137066 -0.016741 0.091217 -78.580673 1.749172 -6.232563 -8.420397 1.526551 2.019466 -0.999999 0.0 -0.0 -5.718029 -6.592025 -9.2182 14.382966 0.080916 0.03064 -77.525139 -1.227806 -6.504365 -8.047084 0.803349 1.638564 -1.000002 -1e-06 0.0 
0.0 0.0 0.0 0.0 -0.0 0.0 -0.302961 100.059387 6.018269 90.182999 -1.216972 90.3013 -3.609137 -0.250777 0.045819 -12.454225 -0.729264 0.241351 23.743633 -0.961551 -1.766523 20.399967 4.220654 2.244547 -2.511701 -0.811043 -1.102261 -33.169052 -1.768105 -1.245255 6e-06 -0.0 0.0 -0.000162 0.019071 0.015269 0.064407 0.104858 0.031438 0.068709 -0.068802 -0.001767 -101.367149 -77.198944 120.774933 56.025898 -54.167946 -2.444899 24.693739 -0.191725 0.112133 -0.452739 2.464511 3.345697 17.636629 -26.322721 52.411179 -19.466661 -14.395594 29.410381 -0.0 -8.774821 -0.0 16.202816 -18.258175 6.038809 -0.609776 -1.795654 -3.889329 -4.807089 -11.046811 -2.93785 4e-06 -20.976017 -3e-06 -5.019971 -25.03356 -4.031881 4e-06 1e-06 0.0 -10.634535 -5.686972 -3.565586 10.573276 -17.922951 -3.113904 4e-06 -13.821211 -0.0 -0.501776 -31.181505 -4.027017 -11.224148 -59.905136 7.11636 -13.982713 -7.150198 -2.875041 13.772727 -8.401492 -3.218242 0.347732 -34.211555 0.771651 -0.963027 -17.733366 2.621017 0.0 -2e-06 -1e-06 -17.346418 -20.095219 -4.20178 21.757557 -1.638374 3.866427 1e-06 -6.338824 -1e-06 -1.69759 -22.591747 -6.194007 0.0 -4e-06 -0.0 45.966621 -75.144791 156.065323 55.731941 -49.458164 0.802767 28.458788 0.186375 0.000171 -2.744658 3.233426 5.950687 22.182116 -20.375895 49.933315 -16.701809 -16.743528 28.476522 -2e-06 -12.6906 0.0 16.280499 -17.767473 2.521867 -0.105919 -1.513855 -4.275882 -5.039041 -5.612871 -2.953557 2e-06 -11.020523 -0.0 -6.1113 -15.89533 -3.840469 0.0 0.0 2e-06 -10.28337 -5.680287 -4.341836 11.028296 -11.302405 -2.372634 -1.38427 -14.238578 -6.32012 -0.625437 -26.924191 -3.827603 -4.456499 -50.004219 -3.711879 -13.708524 -7.363477 -3.720942 18.141148 -14.052738 -3.242673 5e-06 -18.78727 1e-06 -0.429711 -8.456044 2.555502 -0.0 -1e-06 1e-06 -15.923534 -20.094482 -5.473583 30.41921 -7.190825 1.735928 4e-06 -8.162922 -4e-06 -1.861903 -22.861467 -6.16794 -1e-06 -3e-06 -2e-06 175.869827 -6.479889 -16.70549 15.797592 -0.010068 0.136329 -78.811249 1.706811 -6.219373 -8.432647 1.538316 2.024094 -0.999999 1e-06 0.0 -5.662645 -6.627491 -9.222516 13.895417 0.083724 0.009164 -77.273659 -1.380131 -6.674093 -8.111553 0.800005 1.641842 -1.000002 0.0 -0.0 
0.0 0.0 0.0 0.0 -0.0 0.0 -0.041477 100.044785 6.034497 90.082703 -1.431641 90.440697 -3.414387 -0.282846 0.072241 -12.398943 -0.739088 0.251291 23.861849 -0.972168 -1.780818 21.172939 4.24457 2.280865 -2.544799 -0.84179 -1.299457 -32.856632 -1.819342 -1.492992 6e-06 -0.0 -0.0 0.003906 0.018975 0.016825 0.056167 0.091767 0.040302 0.066545 -0.056325 -0.008318 -100.461967 -77.376534 119.965591 56.411804 -54.041565 -3.134948 24.845335 -0.229278 0.095567 -0.567329 2.240058 3.343613 17.636625 -26.322733 52.411201 -19.466661 -14.395597 29.410393 -1e-06 -8.774821 0.0 16.221256 -18.256235 6.014261 -0.609775 -1.795653 -3.889329 -4.807088 -11.046811 -2.93785 4e-06 -20.976019 -2e-06 -5.01997 -25.033562 -4.031879 4e-06 -1e-06 1e-06 -10.634533 -5.68697 -3.565587 10.573275 -17.922953 -3.113904 2e-06 -13.82121 0.0 -0.501777 -31.181505 -4.027017 -11.29585 -59.897442 7.133428 -13.982713 -7.150198 -2.875042 13.772728 -8.401491 -3.218241 0.347732 -34.211555 0.771656 -0.963032 -17.733372 2.621021 0.0 -1e-06 -1e-06 -17.346418 -20.095219 -4.201782 21.757557 -1.638376 3.866426 1e-06 -6.338823 -2e-06 -1.697589 -22.591745 -6.194006 -1e-06 -3e-06 1e-06 46.544113 -75.280243 155.480392 56.007011 -49.579582 0.052009 28.591803 0.181374 -0.004666 -2.758805 3.365593 5.649365 22.182114 -20.375904 49.933342 -16.701815 -16.743532 28.476542 -4e-06 -12.690603 1e-06 16.27566 -17.719893 2.509857 -0.10592 -1.513857 -4.275881 -5.039041 -5.612871 -2.953562 4e-06 -11.020525 -0.0 -6.111299 -15.895332 -3.840473 -0.0 -0.0 1e-06 -10.283371 -5.680288 -4.341839 11.028296 -11.302406 -2.372635 -1.384271 -14.238579 -6.32012 -0.625437 -26.924192 -3.827601 -4.452962 -49.938164 -3.737871 -13.708526 -7.363477 -3.720941 18.141153 -14.05274 -3.242677 4e-06 -18.787271 2e-06 -0.429712 -8.456045 2.555506 -1e-06 -0.0 -1e-06 -15.923538 -20.094486 -5.47359 30.419222 -7.190829 1.735927 4e-06 -8.162927 -2e-06 -1.8619 -22.861471 -6.167945 0.0 -3e-06 -2e-06 175.249756 -6.498576 -16.477755 16.562412 -0.015503 0.151099 -79.146744 1.639058 -6.1193 -8.379343 1.542108 2.031689 -1.0 0.0 0.0 -5.764855 -6.687234 -9.266281 13.706703 0.086945 -0.004221 -77.1399 -1.492082 -6.905682 -8.086846 0.801186 1.643816 -1.000002 0.0 -0.0 
0.0 0.0 0.0 0.0 -0.0 0.0 0.193885 100.020828 6.015868 89.961159 -1.604958 90.563217 -3.194435 -0.322561 0.095319 -12.34426 -0.744571 0.24836 24.026379 -0.994603 -1.762741 21.962646 4.264272 2.321393 -2.579434 -0.866976 -1.507613 -32.626259 -1.838246 -1.681203 6e-06 0.0 0.0 0.002609 0.018446 0.006465 0.038469 0.080786 0.035156 0.05581 -0.04683 -0.024646 -99.470978 -77.545403 119.069977 56.799541 -53.904274 -3.784194 24.983995 -0.244003 0.090662 -0.68953 2.108066 3.352021 17.636631 -26.322741 52.411213 -19.466665 -14.395602 29.410398 -1e-06 -8.774822 -0.0 16.247355 -18.255873 6.006625 -0.609776 -1.795653 -3.889328 -4.80709 -11.046811 -2.937852 5e-06 -20.976017 -2e-06 -5.019972 -25.033556 -4.03188 3e-06 -0.0 1e-06 -10.634535 -5.686971 -3.565585 10.573277 -17.922955 -3.113903 2e-06 -13.821209 -1e-06 -0.501779 -31.181505 -4.027016 -11.35976 -59.919735 7.176033 -13.982717 -7.150198 -2.875041 13.772731 -8.401493 -3.218241 0.347733 -34.211555 0.771657 -0.96303 -17.73337 2.621019 -1e-06 0.0 -1e-06 -17.346422 -20.095221 -4.20178 21.757561 -1.638374 3.866428 1e-06 -6.338824 -2e-06 -1.69759 -22.591749 -6.194003 -1e-06 -2e-06 -1e-06 47.165245 -75.465424 154.848068 56.329002 -49.718437 -0.566099 28.762363 0.215774 -0.000595 -2.821857 3.465899 5.466525 22.182117 -20.375893 49.933319 -16.701811 -16.74353 28.476532 -3e-06 -12.690603 -3e-06 16.254051 -17.674364 2.522564 -0.105919 -1.513857 -4.275882 -5.039042 -5.612873 -2.953557 4e-06 -11.020525 -1e-06 -6.111301 -15.895334 -3.84047 1e-06 -0.0 -0.0 -10.283371 -5.680288 -4.341836 11.028296 -11.302404 -2.372636 -1.384271 -14.238579 -6.32012 -0.625438 -26.924187 -3.827601 -4.459323 -49.847115 -3.72705 -13.708527 -7.363478 -3.720939 18.141153 -14.052739 -3.242676 6e-06 -18.787271 -1e-06 -0.429712 -8.456041 2.555502 1e-06 -1e-06 0.0 -15.923539 -20.094486 -5.473584 30.419218 -7.190826 1.735929 3e-06 -8.162925 -2e-06 -1.861904 -22.861467 -6.167943 1e-06 -3e-06 -1e-06 174.662064 -6.558591 -16.303904 17.313566 -0.024633 0.155125 -79.480827 1.537344 -6.001801 -8.34211 1.54503 2.03693 -0.999999 0.0 0.0 -5.882955 -6.796122 -9.351377 13.598736 0.086883 -0.014279 -76.972816 -1.481959 -7.209096 -8.068473 0.792191 1.640565 -1.000001 -0.0 0.0 
